<svg width="703" height="184" viewBox="0 0 703 184" fill="none" xmlns="http://www.w3.org/2000/svg">
<path d="M0 180H23.092L42.419 125.282H113.954L133.03 180H157.628L91.364 0.534973H66.013L0 180ZM70.28 46.719C73.794 36.428 78.563 21.368 78.563 21.368H79.065C79.065 21.368 83.583 36.679 87.097 46.719L107.679 106.959H48.945L70.28 46.719Z" fill="white"/>
<path d="M214.581 183.514C246.96 183.514 267.291 165.442 270.052 134.318H249.972C248.215 154.398 235.665 166.446 214.581 166.446C186.971 166.446 172.664 143.856 172.664 115.242C172.664 86.628 186.971 63.787 214.581 63.787C234.159 63.787 246.458 74.58 249.47 92.15H270.052C265.534 64.54 245.203 46.97 214.581 46.97C175.927 46.97 151.831 77.592 151.831 115.242C151.831 152.892 175.927 183.514 214.581 183.514Z" fill="white"/>
<path d="M334.699 183.514C367.078 183.514 387.409 165.442 390.17 134.318H370.09C368.333 154.398 355.783 166.446 334.699 166.446C307.089 166.446 292.782 143.856 292.782 115.242C292.782 86.628 307.089 63.787 334.699 63.787C354.277 63.787 366.576 74.58 369.588 92.15H390.17C385.652 64.54 365.321 46.97 334.699 46.97C296.045 46.97 271.949 77.592 271.949 115.242C271.949 152.892 296.045 183.514 334.699 183.514Z" fill="white"/>
<path d="M502.255 180V50.233H481.924V130.051C481.924 150.633 468.621 166.195 448.039 166.195C429.716 166.195 418.923 156.406 418.923 139.589V50.233H398.592V140.091C398.592 166.948 415.66 183.012 442.266 183.012C461.091 183.012 472.135 174.729 481.422 162.179H481.924V180H502.255Z" fill="white"/>
<path d="M575.178 183.514C604.545 183.514 624.876 167.701 630.9 139.84H611.071C606.553 157.41 594.003 166.446 575.178 166.446C549.074 166.446 534.767 146.366 533.261 120.011H633.661C633.661 77.09 612.828 46.97 573.923 46.97C537.026 46.97 512.428 77.592 512.428 115.242C512.428 152.892 535.52 183.514 575.178 183.514ZM573.923 63.034C597.266 63.034 610.569 78.847 611.824 104.7H533.763C536.775 81.106 549.827 63.034 573.923 63.034Z" fill="white"/>
<path d="M643.501 180H663.832V50.233H643.501V180ZM643.501 25.635H663.832V0.534973H643.501V25.635Z" fill="white"/>
<path d="M682.257 180H702.588V0.534973H682.257V180Z" fill="white"/>
</svg>
