<svg width="444" height="184" viewBox="0 0 444 184" fill="none" xmlns="http://www.w3.org/2000/svg">
<path d="M0.816895 180H80.8859C100.213 180 115.775 173.725 125.815 162.932C134.098 154.147 138.867 142.35 138.867 128.545C138.867 104.449 123.054 89.891 102.723 85.122V84.369C120.544 78.847 131.588 66.548 131.588 46.719C131.588 33.918 127.321 23.627 120.042 16.097C110.002 5.55497 95.6949 0.534973 76.8699 0.534973H0.816895V180ZM23.4069 159.669V96.417H78.3759C100.213 96.417 116.026 107.461 116.026 129.8C116.026 138.334 113.014 145.362 107.994 150.633C101.97 156.406 92.6829 159.669 79.8819 159.669H23.4069ZM23.4069 77.341V20.113H77.1209C97.2009 20.113 108.998 30.655 108.998 47.974C108.998 66.548 95.9459 77.341 74.1089 77.341H23.4069Z" fill="white"/>
<path d="M149.297 180H169.628V50.233H149.297V180ZM149.297 25.635H169.628V0.534973H149.297V25.635Z" fill="white"/>
<path d="M188.053 180H208.384V0.534973H188.053V180Z" fill="white"/>
<path d="M227.527 180H247.858V0.534973H227.527V180Z" fill="white"/>
<path d="M321.718 183.514C351.085 183.514 371.416 167.701 377.44 139.84H357.611C353.093 157.41 340.543 166.446 321.718 166.446C295.614 166.446 281.307 146.366 279.801 120.011H380.201C380.201 77.09 359.368 46.97 320.463 46.97C283.566 46.97 258.968 77.592 258.968 115.242C258.968 152.892 282.06 183.514 321.718 183.514ZM320.463 63.034C343.806 63.034 357.109 78.847 358.364 104.7H280.303C283.315 81.106 296.367 63.034 320.463 63.034Z" fill="white"/>
<path d="M379.307 66.799H398.132V155.653C398.132 173.976 410.18 180.753 426.746 180.753C432.77 180.753 438.292 180 443.061 178.996V161.426H442.308C440.049 162.179 435.531 163.183 431.515 163.183C423.232 163.183 418.463 160.171 418.463 151.135V66.799H443.563V50.233H418.463V9.31998H398.132V50.233H379.307V66.799Z" fill="white"/>
</svg>
