<svg width="454" height="185" viewBox="0 0 454 185" fill="none" xmlns="http://www.w3.org/2000/svg">
<path d="M0.319092 181H22.9091V1.53499H0.319092V181Z" fill="white"/>
<path d="M64.2084 51.233H43.8774V181H64.2084V101.182C64.2084 79.847 79.2684 65.289 99.8504 65.289C118.173 65.289 129.217 74.827 129.217 91.644V181H149.548V89.887C149.548 63.03 132.982 48.221 105.874 48.221C87.0494 48.221 73.9974 56.002 64.7104 68.301H64.2084V51.233Z" fill="white"/>
<path d="M156.937 67.799H174.758V181H195.089V67.799H219.185V51.233H195.089V31.404C195.089 20.862 199.858 17.599 212.91 17.599C214.918 17.599 215.922 17.599 219.436 17.85V0.530985C216.675 0.279988 213.412 0.0289917 209.145 0.0289917C187.559 0.0289917 174.758 8.06099 174.758 30.4V51.233H156.937V67.799Z" fill="white"/>
<path d="M280.755 184.514C319.66 184.514 343.254 153.892 343.254 116.242C343.254 78.592 319.66 47.97 280.755 47.97C242.101 47.97 218.005 78.592 218.005 116.242C218.005 153.892 242.101 184.514 280.755 184.514ZM280.755 167.446C253.145 167.446 238.838 144.856 238.838 116.242C238.838 87.628 253.145 64.787 280.755 64.787C308.365 64.787 322.421 87.628 322.421 116.242C322.421 144.856 308.365 167.446 280.755 167.446Z" fill="white"/>
<path d="M402.686 184.765C432.555 184.765 453.89 171.462 453.89 145.358C453.89 115.489 432.053 109.716 405.949 104.445C383.61 99.927 371.06 97.166 371.06 83.11C371.06 72.819 378.59 64.536 397.164 64.536C416.491 64.536 425.778 72.066 427.786 89.134H448.619C445.607 63.783 429.794 48.472 397.666 48.472C367.546 48.472 350.98 62.528 350.98 84.114C350.98 112.477 373.821 117.748 399.423 123.019C423.268 128.039 433.308 131.804 433.308 146.362C433.308 158.41 424.523 167.697 403.188 167.697C383.861 167.697 368.801 161.422 366.04 138.832H345.207C347.215 167.948 367.044 184.765 402.686 184.765Z" fill="white"/>
</svg>
