<svg width="151" height="29" viewBox="0 0 151 29" fill="none" xmlns="http://www.w3.org/2000/svg">
<path d="M0.0769958 23H2.867V13.7H8.912C13.748 13.7 16.073 11.251 16.073 7.18999C16.073 5.51599 15.515 4.05899 14.585 2.97399C13.438 1.60999 11.64 0.834991 9.315 0.834991H0.0769958V23ZM2.867 3.25299H8.85C11.671 3.25299 13.314 4.64799 13.314 7.31399C13.314 9.85599 11.826 11.437 8.695 11.437H2.867V3.25299Z" fill="white"/>
<path d="M17.2367 23H19.7477V0.834991H17.2367V23Z" fill="white"/>
<path d="M28.8699 23.434C33.6749 23.434 36.5889 19.652 36.5889 15.002C36.5889 10.352 33.6749 6.56999 28.8699 6.56999C24.0959 6.56999 21.1199 10.352 21.1199 15.002C21.1199 19.652 24.0959 23.434 28.8699 23.434ZM28.8699 21.326C25.4599 21.326 23.6929 18.536 23.6929 15.002C23.6929 11.468 25.4599 8.64699 28.8699 8.64699C32.2799 8.64699 34.0159 11.468 34.0159 15.002C34.0159 18.536 32.2799 21.326 28.8699 21.326Z" fill="white"/>
<path d="M40.3642 6.97299H37.8532V23H40.3642V13.142C40.3642 10.507 42.2242 8.70899 44.7662 8.70899C47.0292 8.70899 48.3932 9.88699 48.3932 11.964V23H50.9042V11.747C50.9042 8.42999 48.8582 6.60099 45.5102 6.60099C43.1852 6.60099 41.5732 7.56199 40.4262 9.08099H40.3642V6.97299Z" fill="white"/>
<path d="M59.3771 28.332C63.6241 28.332 66.4141 26.348 66.4141 22.132V6.97299H63.9031V9.01899H63.8411C62.7561 7.49999 61.2681 6.60099 58.9431 6.60099C55.2231 6.60099 52.0921 9.51499 52.0921 14.506C52.0921 19.125 54.9441 22.442 59.0981 22.442C61.3921 22.442 62.6631 21.481 63.8411 19.962H63.9031V22.225C63.9031 25.015 62.2601 26.348 59.3151 26.348C56.8351 26.348 55.1611 25.666 54.9131 23.899H52.5881C52.8671 26.658 55.2231 28.332 59.3771 28.332ZM59.2221 20.334C56.2461 20.334 54.6651 18.04 54.6651 14.537C54.6651 11.065 56.1841 8.70899 59.1911 8.70899C62.6011 8.70899 64.0891 10.879 64.0891 14.382C64.0891 17.761 62.9111 20.334 59.2221 20.334Z" fill="white"/>
<path d="M75.4341 23.434C79.0611 23.434 81.5721 21.481 82.3161 18.04H79.8671C79.3091 20.21 77.7591 21.326 75.4341 21.326C72.2101 21.326 70.4431 18.846 70.2571 15.591H82.6571C82.6571 10.29 80.0841 6.56999 75.2791 6.56999C70.7221 6.56999 67.6841 10.352 67.6841 15.002C67.6841 19.652 70.5361 23.434 75.4341 23.434ZM75.2791 8.55399C78.1621 8.55399 79.8051 10.507 79.9601 13.7H70.3191C70.6911 10.786 72.3031 8.55399 75.2791 8.55399Z" fill="white"/>
<path d="M90.7234 23.434C95.5284 23.434 98.4424 19.652 98.4424 15.002C98.4424 10.352 95.5284 6.56999 90.7234 6.56999C85.9494 6.56999 82.9734 10.352 82.9734 15.002C82.9734 19.652 85.9494 23.434 90.7234 23.434ZM90.7234 21.326C87.3134 21.326 85.5464 18.536 85.5464 15.002C85.5464 11.468 87.3134 8.64699 90.7234 8.64699C94.1334 8.64699 95.8694 11.468 95.8694 15.002C95.8694 18.536 94.1334 21.326 90.7234 21.326Z" fill="white"/>
<path d="M102.218 6.97299H99.7066V23H102.218V13.142C102.218 10.507 104.078 8.70899 106.62 8.70899C108.883 8.70899 110.247 9.88699 110.247 11.964V23H112.758V11.747C112.758 8.42999 110.712 6.60099 107.364 6.60099C105.039 6.60099 103.427 7.56199 102.28 9.08099H102.218V6.97299Z" fill="white"/>
<path d="M120.921 23.465C124.61 23.465 127.245 21.822 127.245 18.598C127.245 14.909 124.548 14.196 121.324 13.545C118.565 12.987 117.015 12.646 117.015 10.91C117.015 9.63899 117.945 8.61599 120.239 8.61599C122.626 8.61599 123.773 9.54599 124.021 11.654H126.594C126.222 8.52299 124.269 6.63199 120.301 6.63199C116.581 6.63199 114.535 8.36799 114.535 11.034C114.535 14.537 117.356 15.188 120.518 15.839C123.463 16.459 124.703 16.924 124.703 18.722C124.703 20.21 123.618 21.357 120.983 21.357C118.596 21.357 116.736 20.582 116.395 17.792H113.822C114.07 21.388 116.519 23.465 120.921 23.465Z" fill="white"/>
<path d="M140.546 15.7693L137.066 9.30365C136.786 8.78381 136 8.98328 136 9.5742V22.5057C136 23.0964 136.786 23.2959 137.066 22.7763L140.546 16.3106C140.637 16.1415 140.637 15.9382 140.546 15.7693Z" fill="white"/>
<path d="M145.275 15.7694L141.794 9.30372C141.514 8.78409 140.729 8.98356 140.729 9.57427V22.5058C140.729 23.0965 141.515 23.296 141.794 22.7763L145.275 16.3107C145.366 16.1416 145.366 15.9383 145.275 15.7694Z" fill="white"/>
<path d="M150.003 15.7694L146.523 9.30372C146.243 8.78409 145.457 8.98356 145.457 9.57427V22.5058C145.457 23.0965 146.243 23.296 146.523 22.7763L150.003 16.3107C150.094 16.1416 150.094 15.9383 150.003 15.7694Z" fill="white"/>
</svg>
