<svg width="865" height="187" viewBox="0 0 865 187" fill="none" xmlns="http://www.w3.org/2000/svg">
<path d="M77.077 186.514C115.731 186.514 143.09 167.689 143.09 134.055C143.09 93.644 111.213 85.11 76.324 78.082C49.467 72.811 29.387 66.787 29.387 46.456C29.387 27.882 45.451 17.591 69.798 17.591C96.153 17.591 112.719 30.392 115.982 55.994H137.317C132.799 22.862 114.225 0.0209961 69.296 0.0209961C32.901 0.0209961 8.30297 17.842 8.30297 47.46C8.30297 81.345 35.411 90.381 67.037 97.409C99.165 104.437 120.751 110.21 120.751 134.808C120.751 157.147 102.93 168.442 78.081 168.442C44.196 168.442 25.622 152.629 22.61 122.258H0.521973C2.52997 158.402 26.626 186.514 77.077 186.514Z" fill="white"/>
<path d="M211.356 186.514C240.723 186.514 261.054 170.701 267.078 142.84H247.249C242.731 160.41 230.181 169.446 211.356 169.446C185.252 169.446 170.945 149.366 169.439 123.011H269.839C269.839 80.09 249.006 49.97 210.101 49.97C173.204 49.97 148.606 80.592 148.606 118.242C148.606 155.892 171.698 186.514 211.356 186.514ZM210.101 66.034C233.444 66.034 246.747 81.847 248.002 107.7H169.941C172.953 84.106 186.005 66.034 210.101 66.034ZM202.069 32.902H219.388L239.97 1.025H214.87L202.069 32.902Z" fill="white"/>
<path d="M381.585 184.255C386.856 184.255 390.119 183.251 392.629 182.247V167.438H391.876C380.581 169.948 378.071 164.175 378.071 153.633V91.887C378.071 61.014 357.74 50.723 330.13 50.723C295.743 50.723 279.177 69.548 278.424 94.648H298.002C298.755 75.07 309.297 66.034 330.381 66.034C348.955 66.034 359.497 74.317 359.497 88.875C359.497 102.931 346.696 104.688 328.373 107.449C295.994 112.469 271.898 118.744 271.898 149.366C271.898 173.964 291.225 185.51 315.823 185.51C337.911 185.51 351.214 174.968 358.995 164.928H359.246C361.254 178.231 368.282 184.255 381.585 184.255ZM320.341 169.948C307.038 169.948 293.484 166.183 293.484 148.864C293.484 129.788 309.799 126.274 330.13 122.509C341.174 120.501 352.971 117.238 359.748 112.971V135.059C359.748 150.119 347.449 169.948 320.341 169.948Z" fill="white"/>
<path d="M417.921 53.233H397.59V183H417.921V103.182C417.921 81.847 432.981 67.289 453.563 67.289C471.886 67.289 482.93 76.827 482.93 93.644V183H503.261V91.887C503.261 65.03 486.695 50.221 459.587 50.221C440.762 50.221 427.71 58.002 418.423 70.301H417.921V53.233Z" fill="white"/>
<path d="M575.63 186.514C608.009 186.514 628.34 168.442 631.101 137.318H611.021C609.264 157.398 596.714 169.446 575.63 169.446C548.02 169.446 533.713 146.856 533.713 118.242C533.713 89.628 548.02 66.787 575.63 66.787C595.208 66.787 607.507 77.58 610.519 95.15H631.101C626.583 67.54 606.252 49.97 575.63 49.97C536.976 49.97 512.88 80.592 512.88 118.242C512.88 155.892 536.976 186.514 575.63 186.514Z" fill="white"/>
<path d="M695.747 186.514C725.114 186.514 745.445 170.701 751.469 142.84H731.64C727.122 160.41 714.572 169.446 695.747 169.446C669.643 169.446 655.336 149.366 653.83 123.011H754.23C754.23 80.09 733.397 49.97 694.492 49.97C657.595 49.97 632.997 80.592 632.997 118.242C632.997 155.892 656.089 186.514 695.747 186.514ZM694.492 66.034C717.835 66.034 731.138 81.847 732.393 107.7H654.332C657.344 84.106 670.396 66.034 694.492 66.034Z" fill="white"/>
<path d="M813.266 186.765C843.135 186.765 864.47 173.462 864.47 147.358C864.47 117.489 842.633 111.716 816.529 106.445C794.19 101.927 781.64 99.166 781.64 85.11C781.64 74.819 789.17 66.536 807.744 66.536C827.071 66.536 836.358 74.066 838.366 91.134H859.199C856.187 65.783 840.374 50.472 808.246 50.472C778.126 50.472 761.56 64.528 761.56 86.114C761.56 114.477 784.401 119.748 810.003 125.019C833.848 130.039 843.888 133.804 843.888 148.362C843.888 160.41 835.103 169.697 813.768 169.697C794.441 169.697 779.381 163.422 776.62 140.832H755.787C757.795 169.948 777.624 186.765 813.266 186.765Z" fill="white"/>
</svg>
